PathFileType	4	(X/Y/Z)	4_1_33_p1_0-185_filt_butterworth.trc
DataRate	CameraRate	NumFrames	NumMarkers	Units	OrigDataRate	OrigDataStartFrame	OrigNumFrames
59.0	59.0	5	27	m	59.0	23	185
Frame#	Time	RHip			RKnee			RAnkle			RBigToe			RSmallToe			RHeel			LHip			LKnee			LAnkle			LBigToe			LSmallToe			LHeel			Neck			Head			Nose			RShoulder			RElbow			RWrist			RThumb			RIndex			RPinky			LShoulder			LElbow			LWrist			LThumb			LIndex			LPinky			
		X1	Y1	Z1	X2	Y2	Z2	X3	Y3	Z3	X4	Y4	Z4	X5	Y5	Z5	X6	Y6	Z6	X7	Y7	Z7	X8	Y8	Z8	X9	Y9	Z9	X10	Y10	Z10	X11	Y11	Z11	X12	Y12	Z12	X13	Y13	Z13	X14	Y14	Z14	X15	Y15	Z15	X16	Y16	Z16	X17	Y17	Z17	X18	Y18	Z18	X19	Y19	Z19	X20	Y20	Z20	X21	Y21	Z21	X22	Y22	Z22	X23	Y23	Z23	X24	Y24	Z24	X25	Y25	Z25	X26	Y26	Z26	X27	Y27	Z27	
23	0.3898305084745763	0.369268078660446	0.9301804435480964	0.3345556773752761	0.38499708545574074	0.5205345457764514	0.3862990533563261	0.37145843849530097	0.11312844796630706	0.5019636048038116	0.3525518680682306	0.11478592502186521	0.25932879943065756	0.4131980658255814	0.08599326456929263	0.3275883780134723	0.36345624498016577	0.07941810692026834	0.5329690080727032	0.1413504074181075	0.916117607617434	0.3543568709891639	0.15081060144888725	0.5168773331392773	0.40536543814142834	0.1844488332281281	0.1186839019902988	0.48931923281089185	0.17989065818382044	0.08694275387304559	0.2825482460779184	0.13073073512813876	0.11731123259345427	0.3057140544797522	0.20887713587450232	0.059827784289055996	0.5598406726970154	0.24081610952061483	1.461531925434894	0.3349654651355375	0.2328299799727837	1.6993199486224932	0.3231376885167502	0.2449608681214264	1.5687410441315028	0.2478723868285567	0.41590928874899247	1.3882175512014494	0.32657458279996265	0.459781733139782	1.117228439041187	0.32089111155562594	0.31606462990043194	0.9661832072489498	0.19906593198464095	0.21804243518322663	0.8953994034861533	0.22520859580345653	0.21521865798937528	0.8810418458868974	0.23657703293257887	0.25602746863625614	0.887358930680261	0.18418123312282164	0.08288224665270165	1.3705674726253474	0.3773184814545302	0.04728593656991937	1.1219695437152504	0.3280984737317008	0.19390607950043925	0.9787503324173761	0.23561824412987437	0.24045216530982622	0.9445687637605739	0.19780728801519892	0.251056391543134	0.900322318020993	0.20684642182312696	0.23962628921171888	0.8891658125532024	0.22915241499787498	
24	0.4067796610169492	0.36927220714761566	0.9303298375680605	0.3345666825770586	0.38487466345558585	0.5212198916638016	0.38634300352997625	0.37144865173521097	0.11322252702815302	0.5019976970567016	0.3525390945683029	0.11480213299826844	0.25932384037427475	0.4124814257748778	0.08700222413696007	0.3256145810277309	0.36346869178623287	0.07942877123708592	0.5329693125297059	0.1414588032211888	0.9163366632462879	0.3554051733477753	0.15093924954387047	0.5171493494898395	0.40498665880623436	0.18455614857391642	0.1187184563682839	0.4890746400190346	0.17924496044802324	0.08738906401193743	0.28068348772332924	0.13075830900585111	0.11455576531269354	0.3062325040489386	0.20901252365175463	0.06011636871032858	0.5593851721551992	0.24023511633457179	1.4617386193264952	0.33735908302097006	0.23290317543725042	1.6985121296715133	0.3232952489776608	0.24485565622531347	1.5687094749047936	0.24816479758782145	0.41456540274381914	1.38780565151534	0.3292876626690289	0.459812855591647	1.11802331844153	0.320799649182348	0.31611785638401896	0.9678403033992774	0.19873252185016288	0.21807398460300803	0.8954812885051123	0.22499848356117555	0.21513480188893275	0.8810104694836591	0.23664405259844104	0.25603546763090834	0.8873241504488343	0.1839365848163779	0.08285676357453978	1.3705651242995027	0.377343531457316	0.04706422875656192	1.1213821231635386	0.32786310691458476	0.19297038377683576	0.9778395625794766	0.23871555997211397	0.2385873043060265	0.9443246546058035	0.19791386814218087	0.25036167249864394	0.8993262711557218	0.20976970859818728	0.23938394929524048	0.8876728547597689	0.2344841324932861	
25	0.423728813559322	0.36926970960644334	0.9303899852951929	0.3345850462446267	0.3847236307916224	0.5218822081526414	0.3863518676317746	0.37144204930500785	0.11328125371557671	0.5020176922705459	0.3525326413660302	0.11482459482130383	0.25931483060973837	0.4118958937463835	0.08780472712728837	0.32400573738359784	0.3635010203603455	0.07939482419520977	0.5330504835283232	0.14163428696869382	0.9166118724288858	0.35647558349090347	0.15105266526060412	0.5174310640735498	0.40456897379529444	0.1845804588407733	0.11866313266159786	0.4890045221473995	0.17863960443779908	0.08734716619370139	0.2796612030503771	0.130775401169528	0.11275960055486553	0.3065816647358413	0.2091126482130427	0.06038105233251795	0.5590978714770054	0.23962082166394144	1.462100940982265	0.33961818682196887	0.23293245143649863	1.69790423861574	0.3233137974099538	0.24491431989973145	1.5687191000059424	0.2479473757779214	0.4130966746530166	1.3874145717591102	0.33174481525362554	0.4598334529210917	1.118772737171061	0.32070441380272535	0.3163739659818422	0.9697202000115663	0.1976116468538759	0.21810821021787835	0.8955943540856341	0.22464582725223264	0.215089004304724	0.880924666804352	0.23668099818783178	0.25600522403560844	0.8874207687069657	0.18361457437132167	0.08283801046393309	1.3705652539806672	0.37736237069389955	0.04689347952291931	1.1208942224120424	0.3276377031810669	0.19204643165771426	0.9776355055840554	0.2413885053628536	0.23701543911217382	0.9449607223253229	0.19780939201693695	0.25035315878821834	0.8989233361374492	0.21115693525860443	0.2391941021686096	0.8865031160898	0.2386289009188224	
26	0.4406779661016949	0.3692613552396817	0.930363717063091	0.33460738129942025	0.3845705359115345	0.5225001528875939	0.38633599021650555	0.37143854572071805	0.1133031814315564	0.5020208873611249	0.35253181469702827	0.11484567774789911	0.2593054312117461	0.41166155111506064	0.08818682285645907	0.32334533995217574	0.36357890201322896	0.07927115676481158	0.5332958535650645	0.14193855518597212	0.9169378105535226	0.3576236112991684	0.15109356693450618	0.517694877648978	0.40427132273134797	0.18455558388290091	0.11858547728085131	0.4890389094036403	0.17816297990295527	0.08707744772725846	0.27947442190847865	0.13077228757651385	0.11228759709462945	0.30668530412371703	0.20915256265606025	0.06051503580614051	0.5590233489936004	0.2391334652919112	1.462458448164355	0.34113840447183286	0.23293818482143014	1.6975737401670652	0.3232711249447383	0.2449910567790532	1.5687359533946723	0.24765888544506148	0.4117138122025783	1.3871054644626022	0.3335974820179759	0.4598406672374905	1.1193731554123125	0.32062028680116883	0.3168523798096816	0.971699258974356	0.19572398475402583	0.2182887269402783	0.8957530641315121	0.2239706322516188	0.21520748820740174	0.8808562587066407	0.23670884549366844	0.2559491425987956	0.8877373927880676	0.18343180213676247	0.08282592747488655	1.3705660718131423	0.37737667101008465	0.0468305754539714	1.1206322409312406	0.327714553011992	0.19141445556897552	0.9782108232097546	0.24284741275813437	0.2363768439301421	0.9462908938497196	0.19766662453917466	0.25114505891071676	0.8993881910049929	0.21038605368576174	0.23910999122865356	0.8860096169625586	0.2403994500483928	
27	0.4576271186440678	0.36924976278285965	0.9302783229798608	0.3346294477516051	0.38444144643310896	0.5230405999305746	0.3863168149866389	0.37143840759738284	0.11328941522263866	0.5020054029415567	0.3525359565347297	0.11485688754418433	0.2593054148447649	0.4119266603448649	0.08802006868358717	0.32403130499489263	0.3636998538115006	0.07907373385439123	0.533680351212432	0.1423799771304174	0.9173103272293543	0.3588935327740546	0.151059929654295	0.5179484249341306	0.4041160006389787	0.18452487198965126	0.11853196918765323	0.48910311523679384	0.17788516407902694	0.08686793735367711	0.2797777808379127	0.13074755556307885	0.11273017079358541	0.3066085902129358	0.20915205607575904	0.06053673237568533	0.559064150660799	0.2389460014229126	1.462712724221121	0.341606366465361	0.23293227402322753	1.6975023552916044	0.3232090957644457	0.24501270619217214	1.5687409035020248	0.24752686326366416	0.41060695955889603	1.3869220378221632	0.33457745163631936	0.45983063350392694	1.1197357420885643	0.32055860805727	0.3175564352035509	0.9735884070056328	0.19328374721460043	0.21869511537663366	0.8958784198888086	0.22316330837159448	0.21556078763461547	0.8809533821134384	0.2367365391126933	0.2558305582521756	0.8882861111412752	0.18341549934127327	0.08281943027214353	1.3705681890503971	0.3773821901819323	0.046821064202511975	1.120742442034474	0.3280147927414007	0.19129845906750864	0.9793389228695902	0.2425645409530696	0.23695688595233627	0.9481094412457186	0.1974429549497002	0.2527233446189497	0.9006483706857681	0.2078669517239009	0.23915751654834166	0.8864067614959731	0.23907648384701619	
